<svg width="100%" height="auto" viewBox="21 0 327 317" fill="none" xmlns="http://www.w3.org/2000/svg"><mask id="mask0_25_39076" maskUnits="userSpaceOnUse" x="0" y="0" width="375" height="317" style="mask-type: alpha;"><rect width="375" height="317" fill="#D9D9D9"></rect></mask><g mask="url(#mask0_25_39076)"><mask id="mask1_25_39076" maskUnits="userSpaceOnUse" x="20" y="8" width="335" height="284" style="mask-type: alpha;"><rect x="20" y="8" width="335" height="284" fill="#F7F7F7"></rect></mask><g mask="url(#mask1_25_39076)"><rect x="20" y="242" width="335" height="1" rx="0.5" fill="#8293AC" fill-opacity="0.16"></rect><rect x="20" y="190" width="335" height="1" rx="0.5" fill="#8293AC" fill-opacity="0.16"></rect><rect x="20" y="138" width="335" height="1" rx="0.5" fill="#8293AC" fill-opacity="0.16"></rect><rect x="20" y="86" width="335" height="1" rx="0.5" fill="#8293AC" fill-opacity="0.16"></rect><rect x="20" y="34" width="95" height="1" rx="0.5" fill="#8293AC" fill-opacity="0.16"></rect></g><path d="M52 243V277M323.5 22.5V277" stroke="#E6E9EE" stroke-width="3" stroke-linecap="round" stroke-dasharray="6 6"></path><path d="M74.0787 244C61.3805 244.455 53.5 244 53.5 244H74.0787C110.368 242.701 186.006 233.977 229.5 186C266.696 144.97 323.5 49.5 323.5 49.5V244H74.0787Z" fill="url(#paint0_linear_25_39076)"></path><g filter="url(#filter0_d_25_39076)"><path d="M53.5 244C53.5 244 170.787 250.765 229.5 186C266.696 144.97 323.5 49.5 323.5 49.5" stroke="url(#paint1_linear_25_39076)" stroke-width="4"></path></g><g filter="url(#filter1_d_25_39076)"><circle cx="52" cy="243" r="8" fill="white"></circle><circle cx="52" cy="243" r="8" fill="#02082D"></circle><circle cx="52" cy="243" r="9" stroke="white" stroke-width="2"></circle></g><g filter="url(#filter2_d_25_39076)"><circle cx="323" cy="49" r="8" fill="#00C891"></circle><circle cx="323" cy="49" r="9" stroke="white" stroke-width="2"></circle></g><path d="M34.2196 300V290.2H38.6716C39.7356 290.2 40.6736 290.405 41.4856 290.816C42.2976 291.217 42.9323 291.782 43.3896 292.51C43.847 293.238 44.0756 294.101 44.0756 295.1C44.0756 296.089 43.847 296.953 43.3896 297.69C42.9323 298.418 42.2976 298.987 41.4856 299.398C40.6736 299.799 39.7356 300 38.6716 300H34.2196ZM36.4876 298.138H38.5596C39.213 298.138 39.7776 298.017 40.2536 297.774C40.739 297.522 41.1123 297.167 41.3736 296.71C41.6443 296.253 41.7796 295.716 41.7796 295.1C41.7796 294.475 41.6443 293.938 41.3736 293.49C41.1123 293.033 40.739 292.683 40.2536 292.44C39.7776 292.188 39.213 292.062 38.5596 292.062H36.4876V298.138ZM50.252 300V298.53L50.112 298.208V295.576C50.112 295.109 49.9674 294.745 49.678 294.484C49.398 294.223 48.964 294.092 48.376 294.092C47.9747 294.092 47.578 294.157 47.186 294.288C46.8034 294.409 46.4767 294.577 46.206 294.792L45.422 293.266C45.8327 292.977 46.3274 292.753 46.906 292.594C47.4847 292.435 48.0727 292.356 48.67 292.356C49.818 292.356 50.7094 292.627 51.344 293.168C51.9787 293.709 52.296 294.554 52.296 295.702V300H50.252ZM47.956 300.112C47.368 300.112 46.864 300.014 46.444 299.818C46.024 299.613 45.702 299.337 45.478 298.992C45.254 298.647 45.142 298.259 45.142 297.83C45.142 297.382 45.2494 296.99 45.464 296.654C45.688 296.318 46.038 296.057 46.514 295.87C46.99 295.674 47.6107 295.576 48.376 295.576H50.378V296.85H48.614C48.1007 296.85 47.746 296.934 47.55 297.102C47.3634 297.27 47.27 297.48 47.27 297.732C47.27 298.012 47.3774 298.236 47.592 298.404C47.816 298.563 48.1194 298.642 48.502 298.642C48.866 298.642 49.1927 298.558 49.482 298.39C49.7714 298.213 49.9814 297.956 50.112 297.62L50.448 298.628C50.2894 299.113 50 299.482 49.58 299.734C49.16 299.986 48.6187 300.112 47.956 300.112ZM55.0879 302.828C54.6959 302.828 54.3086 302.767 53.9259 302.646C53.5433 302.525 53.2306 302.357 52.9879 302.142L53.7859 300.588C53.9539 300.737 54.1453 300.854 54.3599 300.938C54.5839 301.022 54.8033 301.064 55.0179 301.064C55.3259 301.064 55.5686 300.989 55.7459 300.84C55.9326 300.7 56.1006 300.462 56.2499 300.126L56.6419 299.202L56.8099 298.964L59.5119 292.468H61.6119L58.2099 300.462C57.9673 301.069 57.6873 301.545 57.3699 301.89C57.0619 302.235 56.7166 302.478 56.3339 302.618C55.9606 302.758 55.5453 302.828 55.0879 302.828ZM56.3759 300.294L53.0159 292.468H55.2699L57.8739 298.768L56.3759 300.294ZM67.518 300V291.04L68.498 292.02H65.558V290.2H69.786V300H67.518Z" fill="#02082D"></path><path d="M299.567 300V290.2H304.019C305.083 290.2 306.021 290.405 306.833 290.816C307.645 291.217 308.28 291.782 308.737 292.51C309.195 293.238 309.423 294.101 309.423 295.1C309.423 296.089 309.195 296.953 308.737 297.69C308.28 298.418 307.645 298.987 306.833 299.398C306.021 299.799 305.083 300 304.019 300H299.567ZM301.835 298.138H303.907C304.561 298.138 305.125 298.017 305.601 297.774C306.087 297.522 306.46 297.167 306.721 296.71C306.992 296.253 307.127 295.716 307.127 295.1C307.127 294.475 306.992 293.938 306.721 293.49C306.46 293.033 306.087 292.683 305.601 292.44C305.125 292.188 304.561 292.062 303.907 292.062H301.835V298.138ZM315.6 300V298.53L315.46 298.208V295.576C315.46 295.109 315.315 294.745 315.026 294.484C314.746 294.223 314.312 294.092 313.724 294.092C313.322 294.092 312.926 294.157 312.534 294.288C312.151 294.409 311.824 294.577 311.554 294.792L310.77 293.266C311.18 292.977 311.675 292.753 312.254 292.594C312.832 292.435 313.42 292.356 314.018 292.356C315.166 292.356 316.057 292.627 316.692 293.168C317.326 293.709 317.644 294.554 317.644 295.702V300H315.6ZM313.304 300.112C312.716 300.112 312.212 300.014 311.792 299.818C311.372 299.613 311.05 299.337 310.826 298.992C310.602 298.647 310.49 298.259 310.49 297.83C310.49 297.382 310.597 296.99 310.812 296.654C311.036 296.318 311.386 296.057 311.862 295.87C312.338 295.674 312.958 295.576 313.724 295.576H315.726V296.85H313.962C313.448 296.85 313.094 296.934 312.898 297.102C312.711 297.27 312.618 297.48 312.618 297.732C312.618 298.012 312.725 298.236 312.94 298.404C313.164 298.563 313.467 298.642 313.85 298.642C314.214 298.642 314.54 298.558 314.83 298.39C315.119 298.213 315.329 297.956 315.46 297.62L315.796 298.628C315.637 299.113 315.348 299.482 314.928 299.734C314.508 299.986 313.966 300.112 313.304 300.112ZM320.436 302.828C320.044 302.828 319.656 302.767 319.274 302.646C318.891 302.525 318.578 302.357 318.336 302.142L319.134 300.588C319.302 300.737 319.493 300.854 319.708 300.938C319.932 301.022 320.151 301.064 320.366 301.064C320.674 301.064 320.916 300.989 321.094 300.84C321.28 300.7 321.448 300.462 321.598 300.126L321.99 299.202L322.158 298.964L324.86 292.468H326.96L323.558 300.462C323.315 301.069 323.035 301.545 322.718 301.89C322.41 302.235 322.064 302.478 321.682 302.618C321.308 302.758 320.893 302.828 320.436 302.828ZM321.724 300.294L318.364 292.468H320.618L323.222 298.768L321.724 300.294ZM334.532 300.168C333.85 300.168 333.174 300.079 332.502 299.902C331.83 299.715 331.26 299.454 330.794 299.118L331.676 297.382C332.049 297.653 332.483 297.867 332.978 298.026C333.472 298.185 333.972 298.264 334.476 298.264C335.045 298.264 335.493 298.152 335.82 297.928C336.146 297.704 336.31 297.396 336.31 297.004C336.31 296.631 336.165 296.337 335.876 296.122C335.586 295.907 335.12 295.8 334.476 295.8H333.44V294.302L336.17 291.208L336.422 292.02H331.284V290.2H338.144V291.67L335.428 294.764L334.28 294.106H334.938C336.142 294.106 337.052 294.377 337.668 294.918C338.284 295.459 338.592 296.155 338.592 297.004C338.592 297.555 338.447 298.073 338.158 298.558C337.868 299.034 337.425 299.421 336.828 299.72C336.23 300.019 335.465 300.168 334.532 300.168ZM343.839 300.168C343.036 300.168 342.317 299.972 341.683 299.58C341.048 299.179 340.549 298.6 340.185 297.844C339.821 297.088 339.639 296.173 339.639 295.1C339.639 294.027 339.821 293.112 340.185 292.356C340.549 291.6 341.048 291.026 341.683 290.634C342.317 290.233 343.036 290.032 343.839 290.032C344.651 290.032 345.369 290.233 345.995 290.634C346.629 291.026 347.129 291.6 347.493 292.356C347.857 293.112 348.039 294.027 348.039 295.1C348.039 296.173 347.857 297.088 347.493 297.844C347.129 298.6 346.629 299.179 345.995 299.58C345.369 299.972 344.651 300.168 343.839 300.168ZM343.839 298.25C344.221 298.25 344.553 298.143 344.833 297.928C345.122 297.713 345.346 297.373 345.505 296.906C345.673 296.439 345.757 295.837 345.757 295.1C345.757 294.363 345.673 293.761 345.505 293.294C345.346 292.827 345.122 292.487 344.833 292.272C344.553 292.057 344.221 291.95 343.839 291.95C343.465 291.95 343.134 292.057 342.845 292.272C342.565 292.487 342.341 292.827 342.173 293.294C342.014 293.761 341.935 294.363 341.935 295.1C341.935 295.837 342.014 296.439 342.173 296.906C342.341 297.373 342.565 297.713 342.845 297.928C343.134 298.143 343.465 298.25 343.839 298.25Z" fill="#02082D"></path><g filter="url(#filter3_d_25_39076)"><path d="M20 188C20 184.686 22.6863 182 26 182H78C81.3137 182 84 184.686 84 188V211.526C84 214.84 81.3137 217.526 78 217.526H63.662C62.6438 217.526 61.6639 217.915 60.9221 218.612L54.7399 224.424C53.2001 225.872 50.7999 225.872 49.2601 224.424L43.0779 218.612C42.3361 217.915 41.3562 217.526 40.338 217.526H26C22.6863 217.526 20 214.84 20 211.526V188Z" fill="white"></path><path d="M20.25 188C20.25 184.824 22.8244 182.25 26 182.25H78C81.1756 182.25 83.75 184.824 83.75 188V211.526C83.75 214.702 81.1756 217.276 78 217.276H63.662C62.5801 217.276 61.539 217.689 60.7509 218.43L54.5686 224.242C53.1251 225.599 50.8749 225.599 49.4314 224.242L43.2491 218.43C42.461 217.689 41.4199 217.276 40.338 217.276H26C22.8244 217.276 20.25 214.702 20.25 211.526V188Z" stroke="#02082D" stroke-opacity="0.2" stroke-width="0.5"></path></g><path d="M36.4686 205V195.2H38.3446L44.1266 202.256H43.2166V195.2H45.4566V205H43.5946L37.7986 197.944H38.7086V205H36.4686ZM51.2053 205.112C50.4026 205.112 49.6886 204.944 49.0633 204.608C48.4473 204.272 47.9573 203.815 47.5933 203.236C47.2386 202.648 47.0613 201.981 47.0613 201.234C47.0613 200.478 47.2386 199.811 47.5933 199.232C47.9573 198.644 48.4473 198.187 49.0633 197.86C49.6886 197.524 50.4026 197.356 51.2053 197.356C51.9986 197.356 52.7079 197.524 53.3333 197.86C53.9586 198.187 54.4486 198.639 54.8033 199.218C55.1579 199.797 55.3353 200.469 55.3353 201.234C55.3353 201.981 55.1579 202.648 54.8033 203.236C54.4486 203.815 53.9586 204.272 53.3333 204.608C52.7079 204.944 51.9986 205.112 51.2053 205.112ZM51.2053 203.32C51.5693 203.32 51.8959 203.236 52.1853 203.068C52.4746 202.9 52.7033 202.662 52.8713 202.354C53.0393 202.037 53.1233 201.663 53.1233 201.234C53.1233 200.795 53.0393 200.422 52.8713 200.114C52.7033 199.806 52.4746 199.568 52.1853 199.4C51.8959 199.232 51.5693 199.148 51.2053 199.148C50.8413 199.148 50.5146 199.232 50.2253 199.4C49.9359 199.568 49.7026 199.806 49.5253 200.114C49.3573 200.422 49.2733 200.795 49.2733 201.234C49.2733 201.663 49.3573 202.037 49.5253 202.354C49.7026 202.662 49.9359 202.9 50.2253 203.068C50.5146 203.236 50.8413 203.32 51.2053 203.32ZM58.312 205L55.596 197.468H57.654L59.908 203.95H58.928L61.28 197.468H63.128L65.41 203.95H64.43L66.754 197.468H68.686L65.956 205H63.842L61.84 199.442H62.484L60.412 205H58.312Z" fill="#02082D"></path><path d="M222.055 45.96V50.04H215.295V56.8H211.215V50.04H204.455V45.96H211.215V39.2H215.295V45.96H222.055ZM221.644 34H239.444V38L229.604 62H224.764L234.444 38.4H221.644V34ZM249.972 43.4C252.878 43.4 255.252 44.2933 257.092 46.08C258.932 47.84 259.852 50.1333 259.852 52.96C259.852 55.7867 258.932 58.0933 257.092 59.88C255.252 61.64 252.878 62.52 249.972 62.52C247.038 62.52 244.652 61.64 242.812 59.88C240.972 58.0933 240.052 55.7867 240.052 52.96C240.052 50.8267 240.612 48.9467 241.732 47.32L250.612 34H255.852L249.452 43.4H249.972ZM249.972 58.16C251.518 58.16 252.785 57.6933 253.772 56.76C254.758 55.8 255.252 54.5333 255.252 52.96C255.252 51.3867 254.758 50.1333 253.772 49.2C252.785 48.24 251.518 47.76 249.972 47.76C248.398 47.76 247.118 48.24 246.132 49.2C245.145 50.1333 244.652 51.3867 244.652 52.96C244.652 54.5333 245.145 55.8 246.132 56.76C247.118 57.6933 248.398 58.16 249.972 58.16ZM272.838 44.44C271.611 45.6667 270.064 46.28 268.198 46.28C266.331 46.28 264.771 45.6667 263.518 44.44C262.264 43.1867 261.638 41.6667 261.638 39.88C261.638 38.0933 262.264 36.5867 263.518 35.36C264.771 34.1067 266.331 33.48 268.198 33.48C270.064 33.48 271.611 34.0933 272.838 35.32C274.091 36.5467 274.718 38.0667 274.718 39.88C274.718 41.6667 274.091 43.1867 272.838 44.44ZM268.158 42.76C269.011 42.76 269.704 42.48 270.238 41.92C270.771 41.36 271.038 40.68 271.038 39.88C271.038 39.0533 270.771 38.36 270.238 37.8C269.704 37.24 269.011 36.96 268.158 36.96C267.331 36.96 266.651 37.24 266.118 37.8C265.584 38.36 265.318 39.0533 265.318 39.88C265.318 40.68 265.584 41.36 266.118 41.92C266.651 42.48 267.331 42.76 268.158 42.76ZM263.998 57.88L282.438 37.36L284.598 38.6L266.158 59.16L263.998 57.88ZM280.998 62.48C279.131 62.48 277.571 61.8667 276.318 60.64C275.064 59.3867 274.438 57.8667 274.438 56.08C274.438 54.2933 275.064 52.7867 276.318 51.56C277.571 50.3067 279.131 49.68 280.998 49.68C282.838 49.68 284.384 50.3067 285.638 51.56C286.891 52.7867 287.518 54.2933 287.518 56.08C287.518 57.8667 286.891 59.3867 285.638 60.64C284.384 61.8667 282.838 62.48 280.998 62.48ZM280.958 58.96C281.811 58.96 282.504 58.68 283.038 58.12C283.571 57.56 283.838 56.88 283.838 56.08C283.838 55.2533 283.571 54.56 283.038 54C282.504 53.44 281.811 53.16 280.958 53.16C280.131 53.16 279.451 53.44 278.918 54C278.384 54.56 278.118 55.2533 278.118 56.08C278.118 56.88 278.384 57.56 278.918 58.12C279.451 58.68 280.131 58.96 280.958 58.96Z" fill="#00C891"></path><path d="M170.201 54.2012C173.714 54.2012 176.562 51.3535 176.562 47.8408C176.562 44.3281 173.714 41.4805 170.201 41.4805C166.688 41.4805 163.841 44.3281 163.841 47.8408C163.841 51.3535 166.688 54.2012 170.201 54.2012Z" fill="#00C891"></path><path d="M170.201 33C160.661 33 152.604 39.1483 149 47.8408C152.604 56.5333 160.873 62.6816 170.201 62.6816C179.53 62.6816 187.798 56.5333 191.402 47.8408C187.798 39.1483 179.742 33 170.201 33ZM170.201 58.4414C164.265 58.4414 159.601 53.7771 159.601 47.8408C159.601 41.9045 164.265 37.2402 170.201 37.2402C176.138 37.2402 180.802 41.9045 180.802 47.8408C180.802 53.7771 176.138 58.4414 170.201 58.4414Z" fill="#00C891"></path></g><defs><filter id="filter0_d_25_39076" x="49.3867" y="48.4782" width="279.831" height="205.724" filterUnits="userSpaceOnUse" color-interpolation-filters="sRGB"><feFlood flood-opacity="0" result="BackgroundImageFix"></feFlood><feColorMatrix in="SourceAlpha" type="matrix" values="0 0 0 0 0 0 0 0 0 0 0 0 0 0 0 0 0 0 127 0" result="hardAlpha"></feColorMatrix><feOffset dy="4"></feOffset><feGaussianBlur stdDeviation="2"></feGaussianBlur><feComposite in2="hardAlpha" operator="out"></feComposite><feColorMatrix type="matrix" values="0 0 0 0 0.516667 0 0 0 0 0.516667 0 0 0 0 0.516667 0 0 0 0.2 0"></feColorMatrix><feBlend mode="normal" in2="BackgroundImageFix" result="effect1_dropShadow_25_39076"></feBlend><feBlend mode="normal" in="SourceGraphic" in2="effect1_dropShadow_25_39076" result="shape"></feBlend></filter><filter id="filter1_d_25_39076" x="36" y="231" width="32" height="32" filterUnits="userSpaceOnUse" color-interpolation-filters="sRGB"><feFlood flood-opacity="0" result="BackgroundImageFix"></feFlood><feColorMatrix in="SourceAlpha" type="matrix" values="0 0 0 0 0 0 0 0 0 0 0 0 0 0 0 0 0 0 127 0" result="hardAlpha"></feColorMatrix><feMorphology radius="2" operator="erode" in="SourceAlpha" result="effect1_dropShadow_25_39076"></feMorphology><feOffset dy="4"></feOffset><feGaussianBlur stdDeviation="4"></feGaussianBlur><feComposite in2="hardAlpha" operator="out"></feComposite><feColorMatrix type="matrix" values="0 0 0 0 0.00784314 0 0 0 0 0.0313726 0 0 0 0 0.176471 0 0 0 0.2 0"></feColorMatrix><feBlend mode="normal" in2="BackgroundImageFix" result="effect1_dropShadow_25_39076"></feBlend><feBlend mode="normal" in="SourceGraphic" in2="effect1_dropShadow_25_39076" result="shape"></feBlend></filter><filter id="filter2_d_25_39076" x="307" y="37" width="32" height="32" filterUnits="userSpaceOnUse" color-interpolation-filters="sRGB"><feFlood flood-opacity="0" result="BackgroundImageFix"></feFlood><feColorMatrix in="SourceAlpha" type="matrix" values="0 0 0 0 0 0 0 0 0 0 0 0 0 0 0 0 0 0 127 0" result="hardAlpha"></feColorMatrix><feMorphology radius="2" operator="erode" in="SourceAlpha" result="effect1_dropShadow_25_39076"></feMorphology><feOffset dy="4"></feOffset><feGaussianBlur stdDeviation="4"></feGaussianBlur><feComposite in2="hardAlpha" operator="out"></feComposite><feColorMatrix type="matrix" values="0 0 0 0 0.117647 0 0 0 0 0.513726 0 0 0 0 1 0 0 0 0.56 0"></feColorMatrix><feBlend mode="normal" in2="BackgroundImageFix" result="effect1_dropShadow_25_39076"></feBlend><feBlend mode="normal" in="SourceGraphic" in2="effect1_dropShadow_25_39076" result="shape"></feBlend></filter><filter id="filter3_d_25_39076" x="0" y="170" width="104" height="83.5098" filterUnits="userSpaceOnUse" color-interpolation-filters="sRGB"><feFlood flood-opacity="0" result="BackgroundImageFix"></feFlood><feColorMatrix in="SourceAlpha" type="matrix" values="0 0 0 0 0 0 0 0 0 0 0 0 0 0 0 0 0 0 127 0" result="hardAlpha"></feColorMatrix><feOffset dy="8"></feOffset><feGaussianBlur stdDeviation="10"></feGaussianBlur><feComposite in2="hardAlpha" operator="out"></feComposite><feColorMatrix type="matrix" values="0 0 0 0 0.00784314 0 0 0 0 0.0313726 0 0 0 0 0.176471 0 0 0 0.04 0"></feColorMatrix><feBlend mode="normal" in2="BackgroundImageFix" result="effect1_dropShadow_25_39076"></feBlend><feBlend mode="normal" in="SourceGraphic" in2="effect1_dropShadow_25_39076" result="shape"></feBlend></filter><linearGradient id="paint0_linear_25_39076" x1="188.5" y1="49.5" x2="224.5" y2="244" gradientUnits="userSpaceOnUse"><stop stop-color="#00C891" stop-opacity="0.09"></stop><stop offset="1" stop-color="#FEE91F" stop-opacity="0"></stop></linearGradient><linearGradient id="paint1_linear_25_39076" x1="188.5" y1="21.5" x2="188.5" y2="244" gradientUnits="userSpaceOnUse"><stop stop-color="#00C891"></stop><stop offset="1" stop-color="#FFE91E"></stop></linearGradient></defs></svg>